<svg id="visual" viewBox="0 0 900 100" width="900" height="100" xmlns="http://www.w3.org/2000/svg" xmlns:xlink="http://www.w3.org/1999/xlink" version="1.1"><rect x="0" y="0" width="900" height="100" fill="#232323"></rect><path d="M0 37L8.3 36.3C16.7 35.7 33.3 34.3 50 35.8C66.7 37.3 83.3 41.7 100 47.8C116.7 54 133.3 62 150 63.8C166.7 65.7 183.3 61.3 200 55C216.7 48.7 233.3 40.3 250 41C266.7 41.7 283.3 51.3 300 56.3C316.7 61.3 333.3 61.7 350 62.8C366.7 64 383.3 66 400 62.3C416.7 58.7 433.3 49.3 450 48.8C466.7 48.3 483.3 56.7 500 62.2C516.7 67.7 533.3 70.3 550 68.5C566.7 66.7 583.3 60.3 600 54C616.7 47.7 633.3 41.3 650 44.2C666.7 47 683.3 59 700 62.2C716.7 65.3 733.3 59.7 750 56.8C766.7 54 783.3 54 800 53.5C816.7 53 833.3 52 850 55.3C866.7 58.7 883.3 66.3 891.7 70.2L900 74L900 101L891.7 101C883.3 101 866.7 101 850 101C833.3 101 816.7 101 800 101C783.3 101 766.7 101 750 101C733.3 101 716.7 101 700 101C683.3 101 666.7 101 650 101C633.3 101 616.7 101 600 101C583.3 101 566.7 101 550 101C533.3 101 516.7 101 500 101C483.3 101 466.7 101 450 101C433.3 101 416.7 101 400 101C383.3 101 366.7 101 350 101C333.3 101 316.7 101 300 101C283.3 101 266.7 101 250 101C233.3 101 216.7 101 200 101C183.3 101 166.7 101 150 101C133.3 101 116.7 101 100 101C83.3 101 66.7 101 50 101C33.3 101 16.7 101 8.3 101L0 101Z" fill="#131313" stroke-linecap="round" stroke-linejoin="miter"></path></svg>