<svg id="visual" viewBox="0 0 900 100" width="900" height="100" xmlns="http://www.w3.org/2000/svg" xmlns:xlink="http://www.w3.org/1999/xlink" version="1.1"><rect x="0" y="0" width="900" height="100" fill="#131313"></rect><path d="M0 50L8.3 54C16.7 58 33.3 66 50 67.2C66.7 68.3 83.3 62.7 100 61.8C116.7 61 133.3 65 150 61.7C166.7 58.3 183.3 47.7 200 41.7C216.7 35.7 233.3 34.3 250 36.2C266.7 38 283.3 43 300 42.8C316.7 42.7 333.3 37.3 350 38.5C366.7 39.7 383.3 47.3 400 47.3C416.7 47.3 433.3 39.7 450 36.7C466.7 33.7 483.3 35.3 500 42.5C516.7 49.7 533.3 62.3 550 63.3C566.7 64.3 583.3 53.7 600 52.8C616.7 52 633.3 61 650 64.5C666.7 68 683.3 66 700 66.8C716.7 67.7 733.3 71.3 750 67.3C766.7 63.3 783.3 51.7 800 47.8C816.7 44 833.3 48 850 49C866.7 50 883.3 48 891.7 47L900 46L900 101L891.7 101C883.3 101 866.7 101 850 101C833.3 101 816.7 101 800 101C783.3 101 766.7 101 750 101C733.3 101 716.7 101 700 101C683.3 101 666.7 101 650 101C633.3 101 616.7 101 600 101C583.3 101 566.7 101 550 101C533.3 101 516.7 101 500 101C483.3 101 466.7 101 450 101C433.3 101 416.7 101 400 101C383.3 101 366.7 101 350 101C333.3 101 316.7 101 300 101C283.3 101 266.7 101 250 101C233.3 101 216.7 101 200 101C183.3 101 166.7 101 150 101C133.3 101 116.7 101 100 101C83.3 101 66.7 101 50 101C33.3 101 16.7 101 8.3 101L0 101Z" fill="#24262b" stroke-linecap="round" stroke-linejoin="miter"></path></svg>