<svg id="visual" viewBox="0 0 900 100" width="900" height="100" xmlns="http://www.w3.org/2000/svg" xmlns:xlink="http://www.w3.org/1999/xlink" version="1.1"><rect x="0" y="0" width="900" height="100" fill="#A1A6AC"></rect><path d="M0 65L8.3 62.3C16.7 59.7 33.3 54.3 50 52C66.7 49.7 83.3 50.3 100 54C116.7 57.7 133.3 64.3 150 68.2C166.7 72 183.3 73 200 66.5C216.7 60 233.3 46 250 41.2C266.7 36.3 283.3 40.7 300 43.5C316.7 46.3 333.3 47.7 350 52C366.7 56.3 383.3 63.7 400 65.7C416.7 67.7 433.3 64.3 450 60.3C466.7 56.3 483.3 51.7 500 48.3C516.7 45 533.3 43 550 43C566.7 43 583.3 45 600 49C616.7 53 633.3 59 650 61.3C666.7 63.7 683.3 62.3 700 60.8C716.7 59.3 733.3 57.7 750 54.3C766.7 51 783.3 46 800 44.2C816.7 42.3 833.3 43.7 850 45.3C866.7 47 883.3 49 891.7 50L900 51L900 101L891.7 101C883.3 101 866.7 101 850 101C833.3 101 816.7 101 800 101C783.3 101 766.7 101 750 101C733.3 101 716.7 101 700 101C683.3 101 666.7 101 650 101C633.3 101 616.7 101 600 101C583.3 101 566.7 101 550 101C533.3 101 516.7 101 500 101C483.3 101 466.7 101 450 101C433.3 101 416.7 101 400 101C383.3 101 366.7 101 350 101C333.3 101 316.7 101 300 101C283.3 101 266.7 101 250 101C233.3 101 216.7 101 200 101C183.3 101 166.7 101 150 101C133.3 101 116.7 101 100 101C83.3 101 66.7 101 50 101C33.3 101 16.7 101 8.3 101L0 101Z" fill="#4682B4" stroke-linecap="round" stroke-linejoin="miter"></path></svg>